<mxfile host="app.diagrams.net" modified="2024-08-02T15:05:56.635Z" agent="Mozilla/5.0 (Windows NT 10.0; Win64; x64) AppleWebKit/537.36 (KHTML, like Gecko) Chrome/127.0.0.0 Safari/537.36 Edg/127.0.0.0" etag="BKCYPSpFNjeoz-b7hbyo" version="24.6.4" type="device">
  <diagram name="Page-1" id="9MREOhIfHWk0LKCG8GQr">
    <mxGraphModel dx="3187" dy="4707" grid="0" gridSize="10" guides="1" tooltips="1" connect="1" arrows="1" fold="1" page="0" pageScale="1" pageWidth="850" pageHeight="1100" math="0" shadow="0">
      <root>
        <mxCell id="0" />
        <mxCell id="1" parent="0" />
        <mxCell id="rF6PsqdnrOWxP_LnzPYq-8" value="" style="group" vertex="1" connectable="0" parent="1">
          <mxGeometry x="-37.5" y="-1036" width="252" height="75" as="geometry" />
        </mxCell>
        <mxCell id="rF6PsqdnrOWxP_LnzPYq-3" value="&lt;div style=&quot;font-family: Consolas, &amp;quot;Courier New&amp;quot;, monospace; font-size: 14px; line-height: 19px; white-space: pre;&quot;&gt;&lt;br&gt;&lt;/div&gt;" style="rounded=1;whiteSpace=wrap;html=1;arcSize=50;fontSize=18;fillColor=#e1d5e7;strokeColor=#9673a6;" vertex="1" parent="rF6PsqdnrOWxP_LnzPYq-8">
          <mxGeometry width="252" height="75" as="geometry" />
        </mxCell>
        <mxCell id="rF6PsqdnrOWxP_LnzPYq-6" value="&lt;span style=&quot;font-family: Consolas, &amp;quot;Courier New&amp;quot;, monospace; font-size: 18px; white-space: pre;&quot;&gt;format_strings(*args)&lt;/span&gt;" style="text;strokeColor=none;align=center;fillColor=none;html=1;verticalAlign=middle;whiteSpace=wrap;rounded=0;fontSize=18;" vertex="1" parent="rF6PsqdnrOWxP_LnzPYq-8">
          <mxGeometry x="10.5" y="25" width="231" height="25" as="geometry" />
        </mxCell>
        <mxCell id="rF6PsqdnrOWxP_LnzPYq-9" value="" style="group;fillColor=#fff2cc;strokeColor=#d6b656;" vertex="1" connectable="0" parent="1">
          <mxGeometry x="-17" y="-599" width="211" height="79" as="geometry" />
        </mxCell>
        <mxCell id="rF6PsqdnrOWxP_LnzPYq-5" value="" style="rounded=1;whiteSpace=wrap;html=1;absoluteArcSize=1;arcSize=0;strokeWidth=2;fillColor=#fff2cc;strokeColor=#d6b656;" vertex="1" parent="rF6PsqdnrOWxP_LnzPYq-9">
          <mxGeometry width="211" height="79" as="geometry" />
        </mxCell>
        <mxCell id="rF6PsqdnrOWxP_LnzPYq-7" value="&lt;span style=&quot;font-size: 18px;&quot;&gt;สร้างตัวแปร str_args เก็บข้อความเปล่า&lt;/span&gt;" style="text;align=center;fillColor=none;html=1;verticalAlign=middle;whiteSpace=wrap;rounded=0;fontSize=18;" vertex="1" parent="rF6PsqdnrOWxP_LnzPYq-9">
          <mxGeometry x="7.5" y="7" width="196" height="65" as="geometry" />
        </mxCell>
        <mxCell id="rF6PsqdnrOWxP_LnzPYq-10" value="" style="group;fillColor=#fff2cc;strokeColor=#d6b656;" vertex="1" connectable="0" parent="1">
          <mxGeometry x="-17" y="-451" width="211" height="79" as="geometry" />
        </mxCell>
        <mxCell id="rF6PsqdnrOWxP_LnzPYq-11" value="" style="rounded=1;whiteSpace=wrap;html=1;absoluteArcSize=1;arcSize=0;strokeWidth=2;fillColor=#fff2cc;strokeColor=#d6b656;" vertex="1" parent="rF6PsqdnrOWxP_LnzPYq-10">
          <mxGeometry width="211" height="79" as="geometry" />
        </mxCell>
        <mxCell id="rF6PsqdnrOWxP_LnzPYq-12" value="&lt;span style=&quot;font-size: 18px;&quot;&gt;สร้างตัวแปร result เก็บข้อความเปล่า&lt;/span&gt;" style="text;strokeColor=none;align=center;fillColor=none;html=1;verticalAlign=middle;whiteSpace=wrap;rounded=0;fontSize=18;" vertex="1" parent="rF6PsqdnrOWxP_LnzPYq-10">
          <mxGeometry x="7.5" y="7" width="196" height="65" as="geometry" />
        </mxCell>
        <mxCell id="rF6PsqdnrOWxP_LnzPYq-15" value="" style="group" vertex="1" connectable="0" parent="1">
          <mxGeometry x="-14.5" y="-258" width="220.5" height="358" as="geometry" />
        </mxCell>
        <mxCell id="rF6PsqdnrOWxP_LnzPYq-13" value="" style="strokeWidth=2;html=1;shape=mxgraph.flowchart.decision;whiteSpace=wrap;fillColor=#f8cecc;strokeColor=#b85450;" vertex="1" parent="rF6PsqdnrOWxP_LnzPYq-15">
          <mxGeometry width="206" height="100" as="geometry" />
        </mxCell>
        <mxCell id="rF6PsqdnrOWxP_LnzPYq-14" value="&lt;font style=&quot;font-size: 18px;&quot;&gt;for arg in args&lt;/font&gt;" style="text;strokeColor=none;align=center;fillColor=none;html=1;verticalAlign=middle;whiteSpace=wrap;rounded=0;" vertex="1" parent="rF6PsqdnrOWxP_LnzPYq-15">
          <mxGeometry x="45" y="35" width="121" height="30" as="geometry" />
        </mxCell>
        <mxCell id="rF6PsqdnrOWxP_LnzPYq-32" value="&lt;font style=&quot;font-size: 18px;&quot;&gt;ไม่ใช่&lt;/font&gt;" style="text;strokeColor=none;align=center;fillColor=none;html=1;verticalAlign=middle;whiteSpace=wrap;rounded=0;" vertex="1" parent="rF6PsqdnrOWxP_LnzPYq-15">
          <mxGeometry x="114.5" y="107" width="60" height="30" as="geometry" />
        </mxCell>
        <mxCell id="rF6PsqdnrOWxP_LnzPYq-45" value="" style="strokeWidth=2;html=1;shape=mxgraph.flowchart.start_2;whiteSpace=wrap;fillColor=#d5e8d4;strokeColor=#82b366;" vertex="1" parent="rF6PsqdnrOWxP_LnzPYq-15">
          <mxGeometry x="85" y="217" width="36" height="36" as="geometry" />
        </mxCell>
        <mxCell id="rF6PsqdnrOWxP_LnzPYq-46" style="edgeStyle=orthogonalEdgeStyle;rounded=0;orthogonalLoop=1;jettySize=auto;html=1;entryX=0.5;entryY=0;entryDx=0;entryDy=0;entryPerimeter=0;" edge="1" parent="rF6PsqdnrOWxP_LnzPYq-15" source="rF6PsqdnrOWxP_LnzPYq-13" target="rF6PsqdnrOWxP_LnzPYq-45">
          <mxGeometry relative="1" as="geometry" />
        </mxCell>
        <mxCell id="rF6PsqdnrOWxP_LnzPYq-19" style="edgeStyle=orthogonalEdgeStyle;rounded=0;orthogonalLoop=1;jettySize=auto;html=1;entryX=0.5;entryY=0;entryDx=0;entryDy=0;" edge="1" parent="1" source="rF6PsqdnrOWxP_LnzPYq-5" target="rF6PsqdnrOWxP_LnzPYq-11">
          <mxGeometry relative="1" as="geometry" />
        </mxCell>
        <mxCell id="rF6PsqdnrOWxP_LnzPYq-20" value="" style="group;fillColor=#fff2cc;strokeColor=#d6b656;" vertex="1" connectable="0" parent="1">
          <mxGeometry x="362" y="-247.5" width="270" height="79" as="geometry" />
        </mxCell>
        <mxCell id="rF6PsqdnrOWxP_LnzPYq-21" value="" style="rounded=1;whiteSpace=wrap;html=1;absoluteArcSize=1;arcSize=0;strokeWidth=2;fillColor=#fff2cc;strokeColor=#d6b656;" vertex="1" parent="rF6PsqdnrOWxP_LnzPYq-20">
          <mxGeometry width="270" height="79" as="geometry" />
        </mxCell>
        <mxCell id="rF6PsqdnrOWxP_LnzPYq-22" value="นำค่าในตัวแปร arg ไปต่อหลังข้อความเปล่าของ str_args" style="text;strokeColor=none;align=center;fillColor=none;html=1;verticalAlign=middle;whiteSpace=wrap;rounded=0;fontSize=18;" vertex="1" parent="rF6PsqdnrOWxP_LnzPYq-20">
          <mxGeometry x="7.5" y="7" width="252.5" height="65" as="geometry" />
        </mxCell>
        <mxCell id="rF6PsqdnrOWxP_LnzPYq-24" style="edgeStyle=orthogonalEdgeStyle;rounded=0;orthogonalLoop=1;jettySize=auto;html=1;entryX=0;entryY=0.5;entryDx=0;entryDy=0;" edge="1" parent="1" source="rF6PsqdnrOWxP_LnzPYq-13" target="rF6PsqdnrOWxP_LnzPYq-21">
          <mxGeometry relative="1" as="geometry">
            <mxPoint x="360" y="-208" as="targetPoint" />
          </mxGeometry>
        </mxCell>
        <mxCell id="rF6PsqdnrOWxP_LnzPYq-25" value="" style="strokeWidth=2;html=1;shape=mxgraph.flowchart.start_2;whiteSpace=wrap;fillColor=#d5e8d4;strokeColor=#82b366;" vertex="1" parent="1">
          <mxGeometry x="70.5" y="-336" width="36" height="36" as="geometry" />
        </mxCell>
        <mxCell id="rF6PsqdnrOWxP_LnzPYq-26" style="edgeStyle=orthogonalEdgeStyle;rounded=0;orthogonalLoop=1;jettySize=auto;html=1;exitX=0.5;exitY=1;exitDx=0;exitDy=0;entryX=0.5;entryY=0;entryDx=0;entryDy=0;entryPerimeter=0;" edge="1" parent="1" source="rF6PsqdnrOWxP_LnzPYq-11" target="rF6PsqdnrOWxP_LnzPYq-25">
          <mxGeometry relative="1" as="geometry" />
        </mxCell>
        <mxCell id="rF6PsqdnrOWxP_LnzPYq-27" style="edgeStyle=orthogonalEdgeStyle;rounded=0;orthogonalLoop=1;jettySize=auto;html=1;exitX=0.5;exitY=1;exitDx=0;exitDy=0;exitPerimeter=0;entryX=0.5;entryY=0;entryDx=0;entryDy=0;entryPerimeter=0;" edge="1" parent="1" source="rF6PsqdnrOWxP_LnzPYq-25" target="rF6PsqdnrOWxP_LnzPYq-13">
          <mxGeometry relative="1" as="geometry" />
        </mxCell>
        <mxCell id="rF6PsqdnrOWxP_LnzPYq-28" style="edgeStyle=orthogonalEdgeStyle;rounded=0;orthogonalLoop=1;jettySize=auto;html=1;entryX=1;entryY=0.5;entryDx=0;entryDy=0;entryPerimeter=0;" edge="1" parent="1" source="rF6PsqdnrOWxP_LnzPYq-21" target="rF6PsqdnrOWxP_LnzPYq-25">
          <mxGeometry relative="1" as="geometry">
            <Array as="points">
              <mxPoint x="506" y="-318" />
            </Array>
          </mxGeometry>
        </mxCell>
        <mxCell id="rF6PsqdnrOWxP_LnzPYq-29" value="&lt;font style=&quot;font-size: 18px;&quot;&gt;ใช่&lt;/font&gt;" style="text;strokeColor=none;align=center;fillColor=none;html=1;verticalAlign=middle;whiteSpace=wrap;rounded=0;" vertex="1" parent="1">
          <mxGeometry x="206" y="-241" width="60" height="30" as="geometry" />
        </mxCell>
        <mxCell id="rF6PsqdnrOWxP_LnzPYq-39" value="" style="edgeStyle=orthogonalEdgeStyle;rounded=0;orthogonalLoop=1;jettySize=auto;html=1;" edge="1" parent="1" source="rF6PsqdnrOWxP_LnzPYq-30" target="rF6PsqdnrOWxP_LnzPYq-38">
          <mxGeometry relative="1" as="geometry" />
        </mxCell>
        <mxCell id="rF6PsqdnrOWxP_LnzPYq-42" value="" style="group" vertex="1" connectable="0" parent="1">
          <mxGeometry x="362" y="238" width="283" height="182" as="geometry" />
        </mxCell>
        <mxCell id="rF6PsqdnrOWxP_LnzPYq-38" value="" style="strokeWidth=2;html=1;shape=mxgraph.flowchart.decision;whiteSpace=wrap;fillColor=#f8cecc;strokeColor=#b85450;" vertex="1" parent="rF6PsqdnrOWxP_LnzPYq-42">
          <mxGeometry width="283" height="181.99999999999997" as="geometry" />
        </mxCell>
        <mxCell id="rF6PsqdnrOWxP_LnzPYq-41" value="&lt;span style=&quot;font-size: 18px;&quot;&gt;ตรวจว่า char args อยู่ในสมชิกของตัวอักษรพิมพ์ใหญ่ไหม?&lt;/span&gt;" style="text;strokeColor=none;align=center;fillColor=none;html=1;verticalAlign=middle;whiteSpace=wrap;rounded=0;" vertex="1" parent="rF6PsqdnrOWxP_LnzPYq-42">
          <mxGeometry x="26.004368932038833" y="63.699999999999996" width="236.29126213592235" height="54.6" as="geometry" />
        </mxCell>
        <mxCell id="rF6PsqdnrOWxP_LnzPYq-30" value="" style="strokeWidth=2;html=1;shape=mxgraph.flowchart.decision;whiteSpace=wrap;fillColor=#f8cecc;strokeColor=#b85450;" vertex="1" parent="1">
          <mxGeometry x="-14.5" y="74" width="206" height="100" as="geometry" />
        </mxCell>
        <mxCell id="rF6PsqdnrOWxP_LnzPYq-33" value="&lt;font style=&quot;font-size: 18px;&quot;&gt;for char args&amp;nbsp;&lt;/font&gt;&lt;div&gt;&lt;font style=&quot;font-size: 18px;&quot;&gt;in str args&lt;/font&gt;&lt;/div&gt;" style="text;strokeColor=none;align=center;fillColor=none;html=1;verticalAlign=middle;whiteSpace=wrap;rounded=0;" vertex="1" parent="1">
          <mxGeometry x="7" y="112" width="172" height="30" as="geometry" />
        </mxCell>
        <mxCell id="rF6PsqdnrOWxP_LnzPYq-40" style="edgeStyle=orthogonalEdgeStyle;rounded=0;orthogonalLoop=1;jettySize=auto;html=1;exitX=0.5;exitY=1;exitDx=0;exitDy=0;" edge="1" parent="1" source="rF6PsqdnrOWxP_LnzPYq-33" target="rF6PsqdnrOWxP_LnzPYq-33">
          <mxGeometry relative="1" as="geometry" />
        </mxCell>
        <mxCell id="rF6PsqdnrOWxP_LnzPYq-47" style="edgeStyle=orthogonalEdgeStyle;rounded=0;orthogonalLoop=1;jettySize=auto;html=1;entryX=0.5;entryY=0;entryDx=0;entryDy=0;entryPerimeter=0;" edge="1" parent="1" source="rF6PsqdnrOWxP_LnzPYq-45" target="rF6PsqdnrOWxP_LnzPYq-30">
          <mxGeometry relative="1" as="geometry" />
        </mxCell>
        <mxCell id="rF6PsqdnrOWxP_LnzPYq-48" value="&lt;font style=&quot;font-size: 18px;&quot;&gt;ใช่&lt;/font&gt;" style="text;strokeColor=none;align=center;fillColor=none;html=1;verticalAlign=middle;whiteSpace=wrap;rounded=0;" vertex="1" parent="1">
          <mxGeometry x="191.5" y="87" width="60" height="30" as="geometry" />
        </mxCell>
        <mxCell id="rF6PsqdnrOWxP_LnzPYq-54" value="" style="group" vertex="1" connectable="0" parent="1">
          <mxGeometry x="851" y="289.5" width="270" height="79" as="geometry" />
        </mxCell>
        <mxCell id="rF6PsqdnrOWxP_LnzPYq-52" value="" style="rounded=1;whiteSpace=wrap;html=1;absoluteArcSize=1;arcSize=0;strokeWidth=2;fillColor=#fff2cc;strokeColor=#d6b656;" vertex="1" parent="rF6PsqdnrOWxP_LnzPYq-54">
          <mxGeometry width="270" height="79" as="geometry" />
        </mxCell>
        <mxCell id="rF6PsqdnrOWxP_LnzPYq-53" value="นำค่าในตัวแปร char args ไปต่อหลังข้อความเปล่าของ result" style="text;strokeColor=none;align=center;fillColor=none;html=1;verticalAlign=middle;whiteSpace=wrap;rounded=0;fontSize=18;" vertex="1" parent="rF6PsqdnrOWxP_LnzPYq-54">
          <mxGeometry x="8.75" y="7" width="252.5" height="65" as="geometry" />
        </mxCell>
        <mxCell id="rF6PsqdnrOWxP_LnzPYq-56" style="edgeStyle=orthogonalEdgeStyle;rounded=0;orthogonalLoop=1;jettySize=auto;html=1;entryX=0;entryY=0.5;entryDx=0;entryDy=0;" edge="1" parent="1" source="rF6PsqdnrOWxP_LnzPYq-38" target="rF6PsqdnrOWxP_LnzPYq-52">
          <mxGeometry relative="1" as="geometry" />
        </mxCell>
        <mxCell id="rF6PsqdnrOWxP_LnzPYq-57" value="&lt;font style=&quot;font-size: 18px;&quot;&gt;ใช่&lt;/font&gt;" style="text;strokeColor=none;align=center;fillColor=none;html=1;verticalAlign=middle;whiteSpace=wrap;rounded=0;" vertex="1" parent="1">
          <mxGeometry x="648" y="295" width="60" height="30" as="geometry" />
        </mxCell>
        <mxCell id="rF6PsqdnrOWxP_LnzPYq-58" style="edgeStyle=orthogonalEdgeStyle;rounded=0;orthogonalLoop=1;jettySize=auto;html=1;entryX=1;entryY=0.5;entryDx=0;entryDy=0;entryPerimeter=0;" edge="1" parent="1" source="rF6PsqdnrOWxP_LnzPYq-69" target="rF6PsqdnrOWxP_LnzPYq-45">
          <mxGeometry relative="1" as="geometry">
            <mxPoint x="534.1334635416667" y="8.333333333333258" as="targetPoint" />
            <Array as="points" />
          </mxGeometry>
        </mxCell>
        <mxCell id="rF6PsqdnrOWxP_LnzPYq-67" style="edgeStyle=orthogonalEdgeStyle;rounded=0;orthogonalLoop=1;jettySize=auto;html=1;entryX=0;entryY=0.5;entryDx=0;entryDy=0;" edge="1" parent="1" source="rF6PsqdnrOWxP_LnzPYq-59" target="rF6PsqdnrOWxP_LnzPYq-64">
          <mxGeometry relative="1" as="geometry" />
        </mxCell>
        <mxCell id="rF6PsqdnrOWxP_LnzPYq-59" value="" style="strokeWidth=2;html=1;shape=mxgraph.flowchart.decision;whiteSpace=wrap;fillColor=#f8cecc;strokeColor=#b85450;" vertex="1" parent="1">
          <mxGeometry x="362" y="562" width="283" height="120" as="geometry" />
        </mxCell>
        <mxCell id="rF6PsqdnrOWxP_LnzPYq-60" value="" style="edgeStyle=orthogonalEdgeStyle;rounded=0;orthogonalLoop=1;jettySize=auto;html=1;" edge="1" parent="1" source="rF6PsqdnrOWxP_LnzPYq-38" target="rF6PsqdnrOWxP_LnzPYq-59">
          <mxGeometry relative="1" as="geometry" />
        </mxCell>
        <mxCell id="rF6PsqdnrOWxP_LnzPYq-61" value="&lt;span style=&quot;font-size: 18px;&quot;&gt;ไม่ใช่&lt;/span&gt;" style="text;strokeColor=none;align=center;fillColor=none;html=1;verticalAlign=middle;whiteSpace=wrap;rounded=0;" vertex="1" parent="1">
          <mxGeometry x="502" y="439" width="60" height="30" as="geometry" />
        </mxCell>
        <mxCell id="rF6PsqdnrOWxP_LnzPYq-62" value="&lt;span style=&quot;font-size: 18px;&quot;&gt;ตรวจว่า char args&amp;nbsp;&lt;/span&gt;&lt;div&gt;&lt;span style=&quot;font-size: 18px;&quot;&gt;เป็นช่องว่างไหม?&lt;/span&gt;&lt;/div&gt;" style="text;strokeColor=none;align=center;fillColor=none;html=1;verticalAlign=middle;whiteSpace=wrap;rounded=0;" vertex="1" parent="1">
          <mxGeometry x="385.3543689320389" y="594.7" width="236.29126213592235" height="54.6" as="geometry" />
        </mxCell>
        <mxCell id="rF6PsqdnrOWxP_LnzPYq-63" value="" style="group" vertex="1" connectable="0" parent="1">
          <mxGeometry x="851" y="582.5" width="270" height="79" as="geometry" />
        </mxCell>
        <mxCell id="rF6PsqdnrOWxP_LnzPYq-64" value="" style="rounded=1;whiteSpace=wrap;html=1;absoluteArcSize=1;arcSize=0;strokeWidth=2;fillColor=#fff2cc;strokeColor=#d6b656;" vertex="1" parent="rF6PsqdnrOWxP_LnzPYq-63">
          <mxGeometry width="270" height="79" as="geometry" />
        </mxCell>
        <mxCell id="rF6PsqdnrOWxP_LnzPYq-65" value="นำ &quot;-&quot; ไปต่อหลังข้อความเปล่าของ result" style="text;strokeColor=none;align=center;fillColor=none;html=1;verticalAlign=middle;whiteSpace=wrap;rounded=0;fontSize=18;" vertex="1" parent="rF6PsqdnrOWxP_LnzPYq-63">
          <mxGeometry x="8.75" y="7" width="252.5" height="65" as="geometry" />
        </mxCell>
        <mxCell id="rF6PsqdnrOWxP_LnzPYq-68" value="&lt;font style=&quot;font-size: 18px;&quot;&gt;ใช่&lt;/font&gt;" style="text;strokeColor=none;align=center;fillColor=none;html=1;verticalAlign=middle;whiteSpace=wrap;rounded=0;" vertex="1" parent="1">
          <mxGeometry x="651" y="582.5" width="60" height="30" as="geometry" />
        </mxCell>
        <mxCell id="rF6PsqdnrOWxP_LnzPYq-69" value="" style="strokeWidth=2;html=1;shape=mxgraph.flowchart.start_2;whiteSpace=wrap;fillColor=#d5e8d4;strokeColor=#82b366;" vertex="1" parent="1">
          <mxGeometry x="968" y="-41" width="36" height="36" as="geometry" />
        </mxCell>
        <mxCell id="rF6PsqdnrOWxP_LnzPYq-71" style="edgeStyle=orthogonalEdgeStyle;rounded=0;orthogonalLoop=1;jettySize=auto;html=1;entryX=0.5;entryY=1;entryDx=0;entryDy=0;entryPerimeter=0;" edge="1" parent="1" source="rF6PsqdnrOWxP_LnzPYq-52" target="rF6PsqdnrOWxP_LnzPYq-69">
          <mxGeometry relative="1" as="geometry" />
        </mxCell>
        <mxCell id="rF6PsqdnrOWxP_LnzPYq-73" style="edgeStyle=orthogonalEdgeStyle;rounded=0;orthogonalLoop=1;jettySize=auto;html=1;entryX=1;entryY=0.5;entryDx=0;entryDy=0;entryPerimeter=0;" edge="1" parent="1" source="rF6PsqdnrOWxP_LnzPYq-95" target="rF6PsqdnrOWxP_LnzPYq-69">
          <mxGeometry relative="1" as="geometry">
            <Array as="points" />
          </mxGeometry>
        </mxCell>
        <mxCell id="rF6PsqdnrOWxP_LnzPYq-76" value="&lt;span style=&quot;font-size: 18px;&quot;&gt;ไม่ใช่&lt;/span&gt;" style="text;strokeColor=none;align=center;fillColor=none;html=1;verticalAlign=middle;whiteSpace=wrap;rounded=0;" vertex="1" parent="1">
          <mxGeometry x="505" y="701" width="60" height="30" as="geometry" />
        </mxCell>
        <mxCell id="rF6PsqdnrOWxP_LnzPYq-78" value="" style="group" vertex="1" connectable="0" parent="1">
          <mxGeometry x="362" y="923" width="283" height="147" as="geometry" />
        </mxCell>
        <mxCell id="rF6PsqdnrOWxP_LnzPYq-74" value="" style="strokeWidth=2;html=1;shape=mxgraph.flowchart.decision;whiteSpace=wrap;fillColor=#f8cecc;strokeColor=#b85450;" vertex="1" parent="rF6PsqdnrOWxP_LnzPYq-78">
          <mxGeometry width="283" height="147" as="geometry" />
        </mxCell>
        <mxCell id="rF6PsqdnrOWxP_LnzPYq-77" value="&lt;span style=&quot;font-size: 18px;&quot;&gt;for position char in range(26)&lt;/span&gt;" style="text;strokeColor=none;align=center;fillColor=none;html=1;verticalAlign=middle;whiteSpace=wrap;rounded=0;" vertex="1" parent="rF6PsqdnrOWxP_LnzPYq-78">
          <mxGeometry x="23.35436893203888" y="40.05750000000006" width="236.29126213592235" height="66.885" as="geometry" />
        </mxCell>
        <mxCell id="rF6PsqdnrOWxP_LnzPYq-79" value="" style="group" vertex="1" connectable="0" parent="1">
          <mxGeometry x="1356" y="1170" width="270" height="79" as="geometry" />
        </mxCell>
        <mxCell id="rF6PsqdnrOWxP_LnzPYq-80" value="" style="rounded=1;whiteSpace=wrap;html=1;absoluteArcSize=1;arcSize=0;strokeWidth=2;fillColor=#fff2cc;strokeColor=#d6b656;" vertex="1" parent="rF6PsqdnrOWxP_LnzPYq-79">
          <mxGeometry width="270" height="79" as="geometry" />
        </mxCell>
        <mxCell id="rF6PsqdnrOWxP_LnzPYq-81" value="นำค่าใน list ที่ชื่อ upper_char[position_char] ไปต่อหลังข้อความเปล่าของ result" style="text;strokeColor=none;align=center;fillColor=none;html=1;verticalAlign=middle;whiteSpace=wrap;rounded=0;fontSize=18;" vertex="1" parent="rF6PsqdnrOWxP_LnzPYq-79">
          <mxGeometry x="8.75" y="7" width="252.5" height="65" as="geometry" />
        </mxCell>
        <mxCell id="rF6PsqdnrOWxP_LnzPYq-85" style="edgeStyle=orthogonalEdgeStyle;rounded=0;orthogonalLoop=1;jettySize=auto;html=1;" edge="1" parent="1" source="rF6PsqdnrOWxP_LnzPYq-83" target="rF6PsqdnrOWxP_LnzPYq-74">
          <mxGeometry relative="1" as="geometry" />
        </mxCell>
        <mxCell id="rF6PsqdnrOWxP_LnzPYq-83" value="" style="strokeWidth=2;html=1;shape=mxgraph.flowchart.start_2;whiteSpace=wrap;fillColor=#d5e8d4;strokeColor=#82b366;" vertex="1" parent="1">
          <mxGeometry x="485.5" y="809" width="36" height="36" as="geometry" />
        </mxCell>
        <mxCell id="rF6PsqdnrOWxP_LnzPYq-86" style="edgeStyle=orthogonalEdgeStyle;rounded=0;orthogonalLoop=1;jettySize=auto;html=1;entryX=0.5;entryY=0;entryDx=0;entryDy=0;entryPerimeter=0;" edge="1" parent="1" source="rF6PsqdnrOWxP_LnzPYq-59" target="rF6PsqdnrOWxP_LnzPYq-83">
          <mxGeometry relative="1" as="geometry" />
        </mxCell>
        <mxCell id="rF6PsqdnrOWxP_LnzPYq-87" value="" style="strokeWidth=2;html=1;shape=mxgraph.flowchart.decision;whiteSpace=wrap;fillColor=#f8cecc;strokeColor=#b85450;" vertex="1" parent="1">
          <mxGeometry x="848" y="1136" width="283" height="147" as="geometry" />
        </mxCell>
        <mxCell id="rF6PsqdnrOWxP_LnzPYq-88" value="" style="edgeStyle=orthogonalEdgeStyle;rounded=0;orthogonalLoop=1;jettySize=auto;html=1;" edge="1" parent="1" source="rF6PsqdnrOWxP_LnzPYq-74" target="rF6PsqdnrOWxP_LnzPYq-87">
          <mxGeometry relative="1" as="geometry" />
        </mxCell>
        <mxCell id="rF6PsqdnrOWxP_LnzPYq-101" style="edgeStyle=orthogonalEdgeStyle;rounded=0;orthogonalLoop=1;jettySize=auto;html=1;entryX=0.5;entryY=1;entryDx=0;entryDy=0;" edge="1" parent="1" target="rF6PsqdnrOWxP_LnzPYq-80">
          <mxGeometry relative="1" as="geometry">
            <mxPoint x="988" y="1282" as="sourcePoint" />
            <mxPoint x="1491" y="1254" as="targetPoint" />
            <Array as="points">
              <mxPoint x="988" y="1511" />
              <mxPoint x="1491" y="1511" />
            </Array>
          </mxGeometry>
        </mxCell>
        <mxCell id="rF6PsqdnrOWxP_LnzPYq-89" value="&lt;span style=&quot;font-size: 18px;&quot;&gt;ตรวจสอบว่า char args == lower_char[position_char] ไหม?&lt;/span&gt;" style="text;strokeColor=none;align=center;fillColor=none;html=1;verticalAlign=middle;whiteSpace=wrap;rounded=0;" vertex="1" parent="1">
          <mxGeometry x="874.0043689320388" y="1184.1175" width="236.29126213592235" height="66.885" as="geometry" />
        </mxCell>
        <mxCell id="rF6PsqdnrOWxP_LnzPYq-92" value="&lt;font style=&quot;font-size: 18px;&quot;&gt;ใช่&lt;/font&gt;" style="text;strokeColor=none;align=center;fillColor=none;html=1;verticalAlign=middle;whiteSpace=wrap;rounded=0;" vertex="1" parent="1">
          <mxGeometry x="638" y="954" width="60" height="30" as="geometry" />
        </mxCell>
        <mxCell id="rF6PsqdnrOWxP_LnzPYq-93" value="&lt;font style=&quot;font-size: 18px;&quot;&gt;ไม่ใช่&lt;/font&gt;" style="text;strokeColor=none;align=center;fillColor=none;html=1;verticalAlign=middle;whiteSpace=wrap;rounded=0;" vertex="1" parent="1">
          <mxGeometry x="1159" y="1176" width="60" height="30" as="geometry" />
        </mxCell>
        <mxCell id="rF6PsqdnrOWxP_LnzPYq-95" value="" style="strokeWidth=2;html=1;shape=mxgraph.flowchart.start_2;whiteSpace=wrap;fillColor=#d5e8d4;strokeColor=#82b366;" vertex="1" parent="1">
          <mxGeometry x="1205" y="-41" width="36" height="36" as="geometry" />
        </mxCell>
        <mxCell id="rF6PsqdnrOWxP_LnzPYq-97" style="edgeStyle=orthogonalEdgeStyle;rounded=0;orthogonalLoop=1;jettySize=auto;html=1;entryX=0.5;entryY=1;entryDx=0;entryDy=0;entryPerimeter=0;" edge="1" parent="1" source="rF6PsqdnrOWxP_LnzPYq-64" target="rF6PsqdnrOWxP_LnzPYq-95">
          <mxGeometry relative="1" as="geometry" />
        </mxCell>
        <mxCell id="rF6PsqdnrOWxP_LnzPYq-100" style="edgeStyle=orthogonalEdgeStyle;rounded=0;orthogonalLoop=1;jettySize=auto;html=1;entryX=1;entryY=0.5;entryDx=0;entryDy=0;entryPerimeter=0;" edge="1" parent="1" source="rF6PsqdnrOWxP_LnzPYq-87" target="rF6PsqdnrOWxP_LnzPYq-83">
          <mxGeometry relative="1" as="geometry">
            <Array as="points">
              <mxPoint x="1247" y="1209" />
              <mxPoint x="1247" y="827" />
            </Array>
          </mxGeometry>
        </mxCell>
        <mxCell id="rF6PsqdnrOWxP_LnzPYq-102" value="&lt;font style=&quot;font-size: 18px;&quot;&gt;ใช่&lt;/font&gt;" style="text;strokeColor=none;align=center;fillColor=none;html=1;verticalAlign=middle;whiteSpace=wrap;rounded=0;" vertex="1" parent="1">
          <mxGeometry x="988" y="1300" width="60" height="30" as="geometry" />
        </mxCell>
        <mxCell id="rF6PsqdnrOWxP_LnzPYq-104" value="" style="strokeWidth=2;html=1;shape=mxgraph.flowchart.start_2;whiteSpace=wrap;fillColor=#d5e8d4;strokeColor=#82b366;" vertex="1" parent="1">
          <mxGeometry x="1473" y="-41" width="36" height="36" as="geometry" />
        </mxCell>
        <mxCell id="rF6PsqdnrOWxP_LnzPYq-105" style="edgeStyle=orthogonalEdgeStyle;rounded=0;orthogonalLoop=1;jettySize=auto;html=1;entryX=1;entryY=0.5;entryDx=0;entryDy=0;entryPerimeter=0;" edge="1" parent="1" source="rF6PsqdnrOWxP_LnzPYq-104" target="rF6PsqdnrOWxP_LnzPYq-95">
          <mxGeometry relative="1" as="geometry" />
        </mxCell>
        <mxCell id="rF6PsqdnrOWxP_LnzPYq-106" style="edgeStyle=orthogonalEdgeStyle;rounded=0;orthogonalLoop=1;jettySize=auto;html=1;entryX=0.5;entryY=1;entryDx=0;entryDy=0;entryPerimeter=0;" edge="1" parent="1" source="rF6PsqdnrOWxP_LnzPYq-80" target="rF6PsqdnrOWxP_LnzPYq-104">
          <mxGeometry relative="1" as="geometry" />
        </mxCell>
        <mxCell id="rF6PsqdnrOWxP_LnzPYq-107" style="edgeStyle=orthogonalEdgeStyle;rounded=0;orthogonalLoop=1;jettySize=auto;html=1;entryX=1;entryY=0.5;entryDx=0;entryDy=0;entryPerimeter=0;" edge="1" parent="1" source="rF6PsqdnrOWxP_LnzPYq-74" target="rF6PsqdnrOWxP_LnzPYq-104">
          <mxGeometry relative="1" as="geometry">
            <Array as="points">
              <mxPoint x="504" y="1694" />
              <mxPoint x="1790" y="1694" />
              <mxPoint x="1790" y="-23" />
            </Array>
          </mxGeometry>
        </mxCell>
        <mxCell id="rF6PsqdnrOWxP_LnzPYq-108" value="&lt;font style=&quot;font-size: 18px;&quot;&gt;ไม่ใช่&lt;/font&gt;" style="text;strokeColor=none;align=center;fillColor=none;html=1;verticalAlign=middle;whiteSpace=wrap;rounded=0;" vertex="1" parent="1">
          <mxGeometry x="510" y="1093" width="60" height="30" as="geometry" />
        </mxCell>
        <mxCell id="rF6PsqdnrOWxP_LnzPYq-109" value="" style="group" vertex="1" connectable="0" parent="1">
          <mxGeometry x="-34.5" y="1863" width="252" height="75" as="geometry" />
        </mxCell>
        <mxCell id="rF6PsqdnrOWxP_LnzPYq-110" value="&lt;div style=&quot;font-family: Consolas, &amp;quot;Courier New&amp;quot;, monospace; font-size: 14px; line-height: 19px; white-space: pre;&quot;&gt;&lt;br&gt;&lt;/div&gt;" style="rounded=1;whiteSpace=wrap;html=1;arcSize=50;fontSize=18;fillColor=#e1d5e7;strokeColor=#9673a6;" vertex="1" parent="rF6PsqdnrOWxP_LnzPYq-109">
          <mxGeometry width="252" height="75" as="geometry" />
        </mxCell>
        <mxCell id="rF6PsqdnrOWxP_LnzPYq-111" value="&lt;font face=&quot;Consolas, Courier New, monospace&quot;&gt;&lt;span style=&quot;white-space: pre;&quot;&gt;Return result&lt;/span&gt;&lt;/font&gt;" style="text;strokeColor=none;align=center;fillColor=none;html=1;verticalAlign=middle;whiteSpace=wrap;rounded=0;fontSize=18;" vertex="1" parent="rF6PsqdnrOWxP_LnzPYq-109">
          <mxGeometry x="10.5" y="25" width="231" height="25" as="geometry" />
        </mxCell>
        <mxCell id="rF6PsqdnrOWxP_LnzPYq-114" style="edgeStyle=orthogonalEdgeStyle;rounded=0;orthogonalLoop=1;jettySize=auto;html=1;entryX=0.477;entryY=0.023;entryDx=0;entryDy=0;entryPerimeter=0;" edge="1" parent="1" source="rF6PsqdnrOWxP_LnzPYq-30" target="rF6PsqdnrOWxP_LnzPYq-110">
          <mxGeometry relative="1" as="geometry" />
        </mxCell>
        <mxCell id="rF6PsqdnrOWxP_LnzPYq-115" value="&lt;font style=&quot;font-size: 18px;&quot;&gt;ไม่ใช่&lt;/font&gt;" style="text;strokeColor=none;align=center;fillColor=none;html=1;verticalAlign=middle;whiteSpace=wrap;rounded=0;" vertex="1" parent="1">
          <mxGeometry x="90" y="204" width="60" height="30" as="geometry" />
        </mxCell>
        <mxCell id="rF6PsqdnrOWxP_LnzPYq-160" value="Start" style="rounded=1;whiteSpace=wrap;html=1;fontSize=16;arcSize=50;fillColor=#f8cecc;strokeColor=#b85450;" vertex="1" parent="1">
          <mxGeometry x="2260" y="-43" width="120" height="60" as="geometry" />
        </mxCell>
        <mxCell id="rF6PsqdnrOWxP_LnzPYq-161" value="End" style="rounded=1;whiteSpace=wrap;html=1;fontSize=16;arcSize=50;fillColor=#f8cecc;strokeColor=#b85450;" vertex="1" parent="1">
          <mxGeometry x="2260" y="967" width="120" height="60" as="geometry" />
        </mxCell>
        <mxCell id="rF6PsqdnrOWxP_LnzPYq-162" value="" style="group" vertex="1" connectable="0" parent="1">
          <mxGeometry x="2195" y="67" width="250" height="100" as="geometry" />
        </mxCell>
        <mxCell id="rF6PsqdnrOWxP_LnzPYq-163" value="" style="shape=process;whiteSpace=wrap;html=1;backgroundOutline=1;labelBackgroundColor=none;fillColor=#e1d5e7;strokeColor=#9673a6;" vertex="1" parent="rF6PsqdnrOWxP_LnzPYq-162">
          <mxGeometry width="250" height="100" as="geometry" />
        </mxCell>
        <mxCell id="rF6PsqdnrOWxP_LnzPYq-164" value="&lt;div style=&quot;font-family: Consolas, &amp;quot;Courier New&amp;quot;, monospace; font-size: 14px; line-height: 19px;&quot;&gt;format_strings(&quot;Hello&quot;, &quot;world&quot;, &quot;this&quot;, &quot;is&quot;, &quot;a&quot;, &quot;test&quot;)&lt;/div&gt;&lt;div style=&quot;font-family: Consolas, &amp;quot;Courier New&amp;quot;, monospace; font-size: 14px; line-height: 19px;&quot;&gt;แล้วเก็บลงตัวแปร result&lt;/div&gt;" style="text;strokeColor=none;align=center;fillColor=none;html=1;verticalAlign=middle;whiteSpace=wrap;rounded=0;labelBackgroundColor=none;fontSize=13;fontColor=#000000;" vertex="1" parent="rF6PsqdnrOWxP_LnzPYq-162">
          <mxGeometry x="30" y="20" width="190" height="60" as="geometry" />
        </mxCell>
        <mxCell id="rF6PsqdnrOWxP_LnzPYq-165" value="" style="edgeStyle=none;html=1;fontSize=16;fontColor=#000000;entryX=0.5;entryY=0;entryDx=0;entryDy=0;" edge="1" parent="1" source="rF6PsqdnrOWxP_LnzPYq-160" target="rF6PsqdnrOWxP_LnzPYq-163">
          <mxGeometry relative="1" as="geometry">
            <mxPoint x="2320" y="57" as="targetPoint" />
          </mxGeometry>
        </mxCell>
        <mxCell id="rF6PsqdnrOWxP_LnzPYq-166" value="แสดง &quot;&lt;span style=&quot;font-family: Consolas, &amp;quot;Courier New&amp;quot;, monospace; font-size: 14px;&quot;&gt;HELLOWORLDTHISISATEST&lt;/span&gt;&quot;" style="strokeWidth=2;html=1;shape=mxgraph.flowchart.display;whiteSpace=wrap;labelBackgroundColor=none;fontSize=16;fillColor=#d5e8d4;strokeColor=#82b366;" vertex="1" parent="1">
          <mxGeometry x="2221.67" y="212" width="196.66" height="100" as="geometry" />
        </mxCell>
        <mxCell id="rF6PsqdnrOWxP_LnzPYq-167" value="" style="group" vertex="1" connectable="0" parent="1">
          <mxGeometry x="2195" y="357" width="250" height="100" as="geometry" />
        </mxCell>
        <mxCell id="rF6PsqdnrOWxP_LnzPYq-168" value="" style="shape=process;whiteSpace=wrap;html=1;backgroundOutline=1;labelBackgroundColor=none;fillColor=#e1d5e7;strokeColor=#9673a6;" vertex="1" parent="rF6PsqdnrOWxP_LnzPYq-167">
          <mxGeometry width="250" height="100" as="geometry" />
        </mxCell>
        <mxCell id="rF6PsqdnrOWxP_LnzPYq-169" value="&lt;div style=&quot;font-family: Consolas, &amp;quot;Courier New&amp;quot;, monospace; font-size: 14px; line-height: 19px;&quot;&gt;format_strings(&quot;Python&quot;, &quot;is&quot;, &quot;fun&quot;)&lt;br&gt;&lt;/div&gt;&lt;div style=&quot;font-family: Consolas, &amp;quot;Courier New&amp;quot;, monospace; font-size: 14px; line-height: 19px;&quot;&gt;แล้วเก็บลงตัวแปร result&lt;/div&gt;" style="text;strokeColor=none;align=center;fillColor=none;html=1;verticalAlign=middle;whiteSpace=wrap;rounded=0;labelBackgroundColor=none;fontSize=13;fontColor=#000000;" vertex="1" parent="rF6PsqdnrOWxP_LnzPYq-167">
          <mxGeometry x="30" y="20" width="190" height="60" as="geometry" />
        </mxCell>
        <mxCell id="rF6PsqdnrOWxP_LnzPYq-170" value="แสดง &quot;&lt;span style=&quot;font-family: Consolas, &amp;quot;Courier New&amp;quot;, monospace; font-size: 14px;&quot;&gt;PYTHONISFUN&lt;/span&gt;&quot;" style="strokeWidth=2;html=1;shape=mxgraph.flowchart.display;whiteSpace=wrap;labelBackgroundColor=none;fontSize=16;fillColor=#d5e8d4;strokeColor=#82b366;" vertex="1" parent="1">
          <mxGeometry x="2221.67" y="497" width="196.66" height="100" as="geometry" />
        </mxCell>
        <mxCell id="rF6PsqdnrOWxP_LnzPYq-171" style="edgeStyle=none;html=1;entryX=0.5;entryY=0;entryDx=0;entryDy=0;fontSize=16;fontColor=#000000;" edge="1" parent="1" source="rF6PsqdnrOWxP_LnzPYq-166" target="rF6PsqdnrOWxP_LnzPYq-168">
          <mxGeometry relative="1" as="geometry" />
        </mxCell>
        <mxCell id="rF6PsqdnrOWxP_LnzPYq-172" value="" style="group" vertex="1" connectable="0" parent="1">
          <mxGeometry x="2195" y="647" width="250" height="100" as="geometry" />
        </mxCell>
        <mxCell id="rF6PsqdnrOWxP_LnzPYq-173" value="" style="shape=process;whiteSpace=wrap;html=1;backgroundOutline=1;labelBackgroundColor=none;fillColor=#e1d5e7;strokeColor=#9673a6;" vertex="1" parent="rF6PsqdnrOWxP_LnzPYq-172">
          <mxGeometry width="250" height="100" as="geometry" />
        </mxCell>
        <mxCell id="rF6PsqdnrOWxP_LnzPYq-174" value="&lt;div style=&quot;font-family: Consolas, &amp;quot;Courier New&amp;quot;, monospace; font-size: 14px; line-height: 19px;&quot;&gt;format_strings(&quot;Hello world&quot;)&lt;br&gt;&lt;/div&gt;&lt;div style=&quot;font-family: Consolas, &amp;quot;Courier New&amp;quot;, monospace; font-size: 14px; line-height: 19px;&quot;&gt;แล้วเก็บลงตัวแปร result&lt;/div&gt;" style="text;strokeColor=none;align=center;fillColor=none;html=1;verticalAlign=middle;whiteSpace=wrap;rounded=0;labelBackgroundColor=none;fontSize=13;fontColor=#000000;" vertex="1" parent="rF6PsqdnrOWxP_LnzPYq-172">
          <mxGeometry x="30" y="20" width="190" height="60" as="geometry" />
        </mxCell>
        <mxCell id="rF6PsqdnrOWxP_LnzPYq-175" value="" style="edgeStyle=none;html=1;fontSize=16;fontColor=#000000;" edge="1" parent="1" source="rF6PsqdnrOWxP_LnzPYq-176" target="rF6PsqdnrOWxP_LnzPYq-161">
          <mxGeometry relative="1" as="geometry" />
        </mxCell>
        <mxCell id="rF6PsqdnrOWxP_LnzPYq-176" value="แสดง &quot;&lt;span style=&quot;font-family: Consolas, &amp;quot;Courier New&amp;quot;, monospace; font-size: 14px;&quot;&gt;HELLO-WORLD&lt;/span&gt;&quot;" style="strokeWidth=2;html=1;shape=mxgraph.flowchart.display;whiteSpace=wrap;labelBackgroundColor=none;fontSize=16;fillColor=#d5e8d4;strokeColor=#82b366;" vertex="1" parent="1">
          <mxGeometry x="2221.67" y="797" width="196.66" height="100" as="geometry" />
        </mxCell>
        <mxCell id="rF6PsqdnrOWxP_LnzPYq-177" value="" style="edgeStyle=none;html=1;fontSize=16;fontColor=#000000;" edge="1" parent="1" source="rF6PsqdnrOWxP_LnzPYq-163" target="rF6PsqdnrOWxP_LnzPYq-166">
          <mxGeometry relative="1" as="geometry" />
        </mxCell>
        <mxCell id="rF6PsqdnrOWxP_LnzPYq-178" style="edgeStyle=none;html=1;entryX=0.5;entryY=0;entryDx=0;entryDy=0;fontSize=16;fontColor=#000000;" edge="1" parent="1" source="rF6PsqdnrOWxP_LnzPYq-170" target="rF6PsqdnrOWxP_LnzPYq-173">
          <mxGeometry relative="1" as="geometry" />
        </mxCell>
        <mxCell id="rF6PsqdnrOWxP_LnzPYq-179" style="edgeStyle=none;html=1;entryX=0.5;entryY=0;entryDx=0;entryDy=0;entryPerimeter=0;fontSize=16;fontColor=#000000;" edge="1" parent="1" source="rF6PsqdnrOWxP_LnzPYq-168" target="rF6PsqdnrOWxP_LnzPYq-170">
          <mxGeometry relative="1" as="geometry" />
        </mxCell>
        <mxCell id="rF6PsqdnrOWxP_LnzPYq-180" value="" style="edgeStyle=none;html=1;fontSize=16;fontColor=#000000;" edge="1" parent="1" source="rF6PsqdnrOWxP_LnzPYq-173" target="rF6PsqdnrOWxP_LnzPYq-176">
          <mxGeometry relative="1" as="geometry" />
        </mxCell>
        <mxCell id="rF6PsqdnrOWxP_LnzPYq-181" value="" style="group;fillColor=#fff2cc;strokeColor=#d6b656;" vertex="1" connectable="0" parent="1">
          <mxGeometry x="-27" y="-891" width="233" height="79" as="geometry" />
        </mxCell>
        <mxCell id="rF6PsqdnrOWxP_LnzPYq-182" value="" style="rounded=1;whiteSpace=wrap;html=1;absoluteArcSize=1;arcSize=0;strokeWidth=2;fillColor=#fff2cc;strokeColor=#d6b656;" vertex="1" parent="rF6PsqdnrOWxP_LnzPYq-181">
          <mxGeometry width="233" height="79" as="geometry" />
        </mxCell>
        <mxCell id="rF6PsqdnrOWxP_LnzPYq-183" value="&lt;span style=&quot;font-size: 18px;&quot;&gt;สร้างตัวแปร lower_char เก็บตัวอักษร a ถึง z พิมพ์เล็ก&lt;/span&gt;" style="text;align=center;fillColor=none;html=1;verticalAlign=middle;whiteSpace=wrap;rounded=0;fontSize=18;" vertex="1" parent="rF6PsqdnrOWxP_LnzPYq-181">
          <mxGeometry x="7.5" y="7" width="223.5" height="65" as="geometry" />
        </mxCell>
        <mxCell id="rF6PsqdnrOWxP_LnzPYq-186" value="" style="group;fillColor=#fff2cc;strokeColor=#d6b656;" vertex="1" connectable="0" parent="1">
          <mxGeometry x="-28" y="-749" width="233" height="79" as="geometry" />
        </mxCell>
        <mxCell id="rF6PsqdnrOWxP_LnzPYq-187" value="" style="rounded=1;whiteSpace=wrap;html=1;absoluteArcSize=1;arcSize=0;strokeWidth=2;fillColor=#fff2cc;strokeColor=#d6b656;" vertex="1" parent="rF6PsqdnrOWxP_LnzPYq-186">
          <mxGeometry width="233" height="79" as="geometry" />
        </mxCell>
        <mxCell id="rF6PsqdnrOWxP_LnzPYq-188" value="&lt;span style=&quot;font-size: 18px;&quot;&gt;สร้างตัวแปร upper_char เก็บตัวอักษร A ถึง Z พิมพ์ใหญ่&lt;/span&gt;" style="text;align=center;fillColor=none;html=1;verticalAlign=middle;whiteSpace=wrap;rounded=0;fontSize=18;" vertex="1" parent="rF6PsqdnrOWxP_LnzPYq-186">
          <mxGeometry x="7.5" y="7" width="223.5" height="65" as="geometry" />
        </mxCell>
        <mxCell id="rF6PsqdnrOWxP_LnzPYq-190" style="edgeStyle=orthogonalEdgeStyle;rounded=0;orthogonalLoop=1;jettySize=auto;html=1;entryX=0.5;entryY=0;entryDx=0;entryDy=0;" edge="1" parent="1" source="rF6PsqdnrOWxP_LnzPYq-3" target="rF6PsqdnrOWxP_LnzPYq-182">
          <mxGeometry relative="1" as="geometry" />
        </mxCell>
        <mxCell id="rF6PsqdnrOWxP_LnzPYq-191" style="edgeStyle=orthogonalEdgeStyle;rounded=0;orthogonalLoop=1;jettySize=auto;html=1;entryX=0.5;entryY=0;entryDx=0;entryDy=0;" edge="1" parent="1" source="rF6PsqdnrOWxP_LnzPYq-182" target="rF6PsqdnrOWxP_LnzPYq-187">
          <mxGeometry relative="1" as="geometry" />
        </mxCell>
        <mxCell id="rF6PsqdnrOWxP_LnzPYq-192" style="edgeStyle=orthogonalEdgeStyle;rounded=0;orthogonalLoop=1;jettySize=auto;html=1;entryX=0.5;entryY=0;entryDx=0;entryDy=0;" edge="1" parent="1" source="rF6PsqdnrOWxP_LnzPYq-187" target="rF6PsqdnrOWxP_LnzPYq-5">
          <mxGeometry relative="1" as="geometry" />
        </mxCell>
      </root>
    </mxGraphModel>
  </diagram>
</mxfile>
